<?xml version="1.0" encoding="utf-8"?>
<!-- Generator: Adobe Illustrator 19.2.1, SVG Export Plug-In . SVG Version: 6.00 Build 0)  -->
<svg version="1.1" id="Lager_1" xmlns="http://www.w3.org/2000/svg" xmlns:xlink="http://www.w3.org/1999/xlink" x="0px" y="0px"
	 viewBox="0 0 346.5 351.2" style="enable-background:new 0 0 346.5 351.2;" xml:space="preserve">
<style type="text/css">
	.st0{fill:#00215C;}
</style>
<path class="st0" d="M253.9,167.6c-1-1.6-3-3.9-5.9-6.7c3.4-2.4,6-4.1,7.9-5.2l-1.1-1.3l-8.6,5.2c-6.3-3.8-13.9-5.7-23-5.7
	c-10.7,0-20.8,2.2-30.3,6.6c-7,3.2-12.8,7.2-17.2,12c-3.2,2.7-6.8,5.4-10.9,8.2c-5.7,3.8-9.6,5.7-11.9,5.7c-1,0-1.6-0.4-1.6-1.3
	c0-1.9,6.1-11.4,18.2-28.6c9.1-12.9,16.6-23.2,22.4-30.8c3.8-4.8,6.6-8.4,8.5-10.7c2.8-3.6,4.3-5.7,4.7-6.3v-0.3
	c-0.2-0.4-0.5-0.6-1-0.6c-6.5,0-16.4,6.8-29.6,20.3c-6.7,6.9-17.6,19.5-32.8,37.8c-11.2,13.6-17.7,20.3-19.4,20.3
	c-0.5,0-0.8-0.3-0.8-0.8c0-1.4,1.3-3.9,4-7.5c2.7-3.5,4.8-6.1,6.2-7.8c5.4-7.5,9.6-13,12.4-16.7c13.3-17.7,20.7-27.5,22.2-29.3
	c3.8-4.5,6.7-7.8,8.7-10.1c2.5-2.9,4-4.8,4.6-5.8V108l-0.6-0.4c-1-0.2-1.9-0.3-2.7-0.3c-7.2,0-17.6,6.8-31.2,20.5
	c-3.4,3.4-14.8,16.1-34.1,38.1c-12,13.7-19.7,20.5-23.2,20.5c-2.9,0-4.4-1-4.4-3.1c0-1.2,0.6-2.1,1.7-2.5h0.2c0.9,0.6,2,0.8,3.2,0.8
	c1.1,0,2-0.5,2.8-1.5s1.2-2,1.2-3c0-2.5-1.3-3.8-4-3.8c-2.4,0-4.3,1-5.7,3c-1.3,1.8-1.9,3.9-1.9,6.4c0,1.7,0.6,3,1.7,4.1
	c1.1,1,2.6,1.5,4.3,1.5c4.5,0,12.9-6.6,25.1-19.7c11.2-12.4,22.5-24.8,33.7-37.2c13.1-13.7,22.7-20.9,28.9-21.7l0.3,0.2
	c-3.3,3.4-6.5,6.5-9.5,9.2c-31.8,29.7-47.8,51.1-47.8,64.1c0,3.3,1.2,4.9,3.5,4.9c3.7,0,11.6-7.6,23.7-22.8
	c16.1-20.2,29-34.7,38.8-43.5c7.9-7.1,13.5-11,16.8-11.7l0.2,0.2l-0.4,1.1c-16.7,16.6-27.4,27.7-32.1,33
	c-14.5,16.5-21.8,28.9-21.8,37c0,4.5,1.9,6.7,5.8,6.7c2.8,0,7.1-1.9,12.9-5.7c0.9-0.6,2.9-2.1,6.1-4.5c-0.5,0.8-1.1,1.6-1.5,2.5
	c-2.1,3.7-3.2,7-3.2,9.6c0,3.8,1.3,6.8,3.9,8.9c2.4,2,5.6,3,9.4,3c9.4,0,17.6-4.2,24.7-12.7c4.6-5.5,9.4-13.9,14.3-25.2l-1.7-0.7
	c-0.7,1.5-1.1,2.6-1.4,3.3c-3.3,8.1-8.2,15.4-14.7,21.7c-7.6,7.3-15.2,11-22.9,11c-2.7,0-4.9-0.9-6.7-2.6c-1.7-1.7-2.6-3.9-2.6-6.6
	c0-7.5,4.7-14.6,14-21.3c7.7-5.6,15.8-9.4,24.3-11.4c5.3-1.2,10.6-1.9,15.8-1.9c8.5,0,15.8,1.6,22,4.9c-10.3,6.1-20.6,16.1-31,30.2
	c-4.6,6.3-9.1,12.5-13.7,18.8c-5.8,7.3-11.3,12.8-16.6,16.5c-6.9,4.7-14.1,7.1-21.6,7.1c-2.8,0-5.5-0.5-7.9-1.5
	c-3.2-1.3-4.8-3.2-4.8-5.6c0-0.5,0.2-1.1,0.6-1.8c0.4-0.7,0.8-1,1.3-1c0.3,0,1,0.2,2,0.7s1.8,0.7,2.3,0.7c1.2,0,2.3-0.4,3.3-1.2
	s1.4-1.9,1.4-3.1c0-2.4-1.3-3.5-4-3.5c-2.4,0-4.5,0.9-6.4,2.6c-1.8,1.8-2.8,3.8-2.8,6.2c0,3.4,2,5.9,6,7.5c2.9,1.2,6.4,1.7,10.5,1.7
	c0.4,0,1.3,0,2.4-0.1c10.9-0.7,19.9-2.9,26.9-6.7c7.4-4,14-10.3,19.8-19.1c4.5-7.6,7.8-13.3,9.9-17.1c6.8-12.3,13.6-21.3,20.3-27
	l3.8-3.1c2.2,2,3.3,5.5,3.3,10.4c0,5.6-1.9,11.4-5.8,17.4c-4.2,6.7-9,10-14.3,10c-1,0-1.9-0.4-2.6-1.1c-0.8-0.7-1.2-1.6-1.2-2.5
	c0-3,2.2-5.5,6.7-7.7l-0.4-1.3c-1.9,0.6-3.7,1.6-5.5,3.1c-2,1.8-3,3.5-3,5.3c0,4.1,2.3,6.1,6.8,6.1c6.4,0,12.2-2.7,17.6-8
	c5.4-5.4,8-11.2,8-17.6C256.2,172.8,255.4,170,253.9,167.6z"/>
<g>
	<path class="st0" d="M151.5,43.4c4.1-2.6,8.4-5,13.3-6c5.3-1.1,10.7-0.4,16,0.5c-0.3-0.6-2-3.3-1.2-3.5c0.4-0.1,1.8,0.6,2.2,0.8
		c0.4,0.1,0.8,0.3,1.1,0.4c0.3,0.1,0.6,0.2,0.9,0.3c0.3,0.2,0.5,0.1,0.6-0.4c1-1.1,1.6-2.9,2.4-4.2c0.7-1.1,1.5-2.2,2.5-3.1
		c2-1.8,4.5-2.7,7.1-2.6c2.5,0.1,5.8,1.5,7.1,3.9c0.3,0.6,0.4,1.3,0.4,1.9c0.1,0.6-0.1,1.8,0.3,2.3c0.2,0.3,1.1,0.5,1.4,0.7
		c0.6,0.4,1.1,0.8,1.5,1.4c0.7,1,1,2.4,0.9,3.6c-0.2,1.4-1.3,2.2-2.2,3.1c-1,1-1.1,1.5-0.9,2.8c0.2,1.5,0,2.8-0.8,4.1
		c-1.6,2.6-4.5,4.3-7.5,4.5c-3.4,0.2-6.9-2.3-9.4-4.5c-2.4-2.1-3.8-5-3.7-8.2c-0.9,1.1-3,4.9-4.9,3.5s0.6-3.6,1.6-4.4
		c-6.2-1.8-12.9-1.8-19,0.5c-5.7,2.1-10.6,6-14.7,10.4c3.9-1.1,7.5-2.9,11.7-3c4.3-0.1,8.2,1.3,12.2,2.8c1.9,0.7,3.9,1.2,5.9,1.5
		c1,0.1,2,0.2,3.1,0.2c0.4,0,1-0.1,1.4,0c0.2,0.1,1.1,0.8,1.1,1.1c0,1.4-3.9,1.8-4.8,2c-2.1,0.6-4.3,1.3-6.3,2.1
		c-3.8,1.5-7.4,3-11.5,3.2c-4.2,0.2-8.4-1-12.4-2.2c-4-1.1-8-2.8-12.2-1.5c-0.9,0.3-3.7,1.9-3.8-0.1c-0.1-1.8,3.6-2.1,4.7-3
		c0.3-0.3,0.7-0.1,0.5-0.6c-0.1-0.2-2.2-0.4-2.4-0.5c-1.1-0.2-2.3-0.4-3.4-0.5c-2.1-0.2-4.8-0.8-6.9-0.3c-2,0.5-3.6,2.3-5.1,3.7
		c-0.9,0.8-1.7,1.7-2.5,2.5c-0.6,0.6-1.9,1.5-1.9,2.4c1.8-0.9,3.5-2.1,5.6-2.1c1.8,0,3.7,0.2,5.3,1.1c1.4,0.8,2.4,2.3,2.6,3.9
		c0.3,2-1.2,3.2-2.9,3.7c-1.9,0.6-3.9,0.9-5.8,0.6c-2.1-0.4-3.7-1.7-5.6-2.4c-4.5-1.7-8.3,1.8-11.8,4.3c3.4,1.3,6.7,2.5,8.9,5.5
		c1.1,1.5,1.2,2.5-0.2,3.8c-1,0.9-2.2,2.6-3.7,2c-0.8-0.3-1.2-0.9-2-1.1s-1.5-0.2-2.3-0.4c-1.5-0.4-2.9-1.1-4-2.2
		c-1-1-1.6-2.3-2.8-3.1c-1.2-0.7-2.6-0.7-3.9-0.3c-3.5,0.9-6.5,3.2-9.2,5.4c-1.3,1-2.7,1.9-3.7,3.1c-1.2,1.3-1.6,3.2-2.8,4.4
		c-0.5,0.5-0.2,0.5-0.9,0.4c-0.1,0-0.5,0-0.6-0.2c-0.2-0.3-0.1-0.5,0-0.8c0.2-1.6,1.4-3.2,2.4-4.4c2-2.4,4.7-4.5,7.2-6.4
		c3.1-2.3,6.6-3.9,10.2-5.3c3.1-1.2,6.6-2.2,9-4.6c1-1,1.9-2.2,1.5-3.7c-0.4-1.6-1.8-3-2.6-4.4c-1.9-3.2-1.1-6.1,0.5-9.3
		c0.7-1.4,1.3-2.4,2.9-2.7c1.3-0.2,3.4-0.1,4.3,1.1c0.8,1,0.5,2.6,0.4,3.8c-0.2,2.2-0.3,4.4-0.6,6.5c-0.1,1-0.2,2.1-0.5,3.1
		c-0.3,0.8-1,1.7-1,2.5c-0.1,1.3,1.2-0.3,1.6-0.7c1-0.9,1.9-1.8,2.9-2.6c2.7-2.4,5.4-4.8,7.3-7.9c2.3-3.5-2.5-6.8-3.7-9.9
		c-1.1-3.2-0.3-7.2,2.5-9.2c1.2-0.9,2.9-1.5,4.4-1.1c1.9,0.5,2.6,3,2.4,4.7c-0.3,2-1.7,3.7-2.5,5.5c-0.9,2-0.9,4-1.2,6.1
		c2.3-1.7,4.2-4.7,5.5-7.2c1.5-2.7,1.4-6.1,2.2-9.1c0.6-2.4,2.1-5,4.8-5.3c2.4-0.2,4.7,1,5.1,3.5c0.4,2.7-0.4,5.1-2.2,7.2
		c-0.8,0.9-1.6,1.8-2.8,2.2c-1.4,0.4-2.6,0.6-3.8,1.6c-1.1,0.9-2.1,2-3,3.1c-0.6,0.6-1.1,1.3-1.6,1.9c-0.7,0.8-1.2,1.6,0.2,0.9
		c2.5-1.2,4.7-2.7,7.6-1.9c2.3,0.6,4.3,2.5,5,4.7c0.4,1.3,0,2.2-0.6,3.3c-0.1,0.1-0.4,0.6-0.4,0.8c0.1,0.6,0.5,0.2,0.8,0.1
		c0.8-0.3,1.6-1,2.4-1.5c0.9-0.6,2.7-1.3,3-2.4c0.4-1.4-0.7-3.3-0.8-4.8c-0.1-2.9,0.4-6.7,1.8-9.3c1.4-2.6,2.7-5.4,4.8-7.4
		s4.7-3.7,7.2-5.2c5.8-3.3,12.4-4.2,18.8-5.5c1-0.2,3.6-0.4,2.5,1.3c-0.8,1.2-3,2.1-4.2,2.9c-3.2,2.2-6.4,4.3-9.5,6.6
		c-2.6,1.9-5,4.1-7.1,6.6C154.9,37.5,153.3,40.5,151.5,43.4z M191.5,50.3c3.4,1.1,6.3,2.1,9.5-0.2c1.5-1.1,4.1-4.9,0.8-5.4
		c-1-0.1-2.9,0.1-3.4-1.2c-0.5-1.2,1-1.8,1.9-1.7c1.6,0.1,2.9-0.2,4.2-1.1c1.1-0.8,2.2-2.4,1.1-3.8c-0.9-1-3-1.6-4.3-1.6
		c-1.1,0.1-4.4,2-5.3,0.8c-2-2.9,8.1-2.8,5.5-5.5c-2.3-2.5-5.7-3.3-8.6-1.4c-1.3,0.8-2.6,1.9-3.5,3.1c-0.3,0.4-1.2,1.8-0.9,2.3
		c0.2,0.5,2.5,1.3,3,1.6c1.6,0.9,2.6,1.6,1.3,3.3c-0.8,1.1-1.9,1.9-0.8,3.1c1.1,1.1,3,1.6,2.7,3.6C194.7,47.9,192.6,49.3,191.5,50.3
		z M164.6,23.3c-9.6,1.7-20,10.6-19.4,21c2.5-4.2,4.6-8.8,7.8-12.4C156.3,28.2,160.6,25.9,164.6,23.3z M146.4,55.9
		c0.7-1,3.3-0.3,4.5-0.1c1.4,0.2,2.8,0.7,4.2,0.8c3,0.3,6.1-0.3,9-1.3c-1-0.7-2.6-0.8-3.8-0.9c-2.2-0.2-4.4-0.3-6.6-0.3
		c-2.1,0-4.3,0.1-6.4,0.4c-1.2,0.2-3,0.3-3.9,1.2c4.3,2.7,10.2,3.2,15.2,3.2c3.4,0,10,0,12-3.4c-4.1,1-8.2,2.3-12.4,2.9
		c-2.1,0.3-4,0.1-6.1-0.4C150.1,57.5,147.8,57.3,146.4,55.9z M95.9,72.9c0.9,1,1.9,2,2.8,3c1.1,1.2,1.9,1.6,3.5,2.1
		c1.3,0.4,6.6,2.4,6-0.9c-0.3-1.8-3.1-3.2-4.6-3.7C101.3,72.5,98.4,72.9,95.9,72.9z M130.6,38c2-0.4,4-1.2,5.2-2.9
		c1-1.3,1.9-3.9,1.2-5.5c-0.3-0.9-1.5-1.7-2.5-1.5c-1.1,0.2-1.5,1.4-2,2.2C131,32.9,130.6,35,130.6,38z M106.5,60.4
		c1.1-2.4,0.9-5.4,1.1-8.1c0.1-1.6,1-5.5-1.9-4.2c-2,0.9-2.6,3.9-2.4,5.8C103.5,56.4,105,58.5,106.5,60.4z M113.8,64
		c2,1.1,4.2,2.2,6.5,2.1c1.4,0,4.6-0.8,4.4-2.8c-0.2-2-3.4-2-4.8-1.8C117.6,61.8,115.6,62.9,113.8,64z M119.7,43.6
		c0.8-1.4,6-10.4,1.9-10.2c-2,0.1-3.1,2.2-3.5,4C117.5,39.7,118.2,41.8,119.7,43.6z M191,38.7c-1.4-0.7-2.7-1.5-4.1-2.2
		c0.1,0.8,0,1.5,0.4,2.2c0.3,0.6,0.8,1,0.6,1.7s-1.1,0.8-1.4,1.4c-0.3,0.7-0.2,1.7,0,2.4c0.3,1.5,1.1,2.7,2.2,3.7
		c0.2,0.1,0.7,0.8,0.9,0.8s0.8-0.7,1-0.9c0.8-0.7,1.5-1.4,2.3-2c-1.1-0.5-3.9-1.1-4.1-2.5C188.4,41.9,190.3,39.8,191,38.7z
		 M151.9,51.9c5.9,0.4,11.8,0.9,17.7,1.3C165.5,50.2,155.4,49.2,151.9,51.9z M125.7,50.2c2.4,0.2,4.9,0.5,7.4,0.4
		c1.8,0,3.6-0.4,2.1-2.5C132.4,44.5,128.1,48.3,125.7,50.2z M145.1,48c0.3,0.2,0.6,0.4,0.8,0.6c2.6-4,5-8.2,7.6-12.3
		c1.1-1.7,2.2-3.4,3.7-4.8c0.7-0.7,1.5-1.3,2.3-1.8c0.3-0.2,2.5-1.8,1.5-2c-0.3-0.1-1.8,1.6-2.2,1.9c-0.8,0.6-1.6,1-2.4,1.6
		c-1.7,1.2-2.8,3-4,4.8C149.9,39.9,147.5,43.9,145.1,48z"/>
	<path class="st0" d="M258.6,285.7c-3.8,3.3-7.8,5.8-12.6,7.5c-2.4,0.9-4.9,1.5-7.4,2.1c-2.6,0.6-4.9,1.5-7.5,2.4
		c1.3,0.7,2.8,1.7,2.6,3.4c-0.3,2.1-2.6,0.6-3.7,0.1c1,6.1-1.6,13.9-6.9,17.4c-1.2,0.8-2.6,1.4-3.9,1.8c-1.4,0.5-2.4,1.7-3.9,1.6
		c-1.1-0.1-3.3-0.6-3.7-1.7s0.7-3.5,1-4.6c-3-0.2-6.2,0.4-7.7-2.8c-0.6-1.2-1.1-2.8-0.8-4.1c0.4-1.5,1.5-2.6,2.4-3.8
		c-2.7-1-5.3-2.4-4.9-5.7c0.4-3,2.5-6.4,5.2-7.8c3.2-1.6,7-1.2,10.3-0.6c1.9,0.3,3.7,1,5.5,1.7c1.9,0.7,2.8,1.8,4.1,3.3
		c0.5-1.6,0.8-2.4,2.1-3.4c0.8,1.2,0.9,1.8,0.9,3.2c4.1-1.5,8.2-2.6,12.4-3.9c3.9-1.2,7.9-2.7,11.2-5.3c2.9-2.3,5.3-5.5,7.4-8.5
		c2.4-3.4,3.9-6.9,5.1-10.9c-2.5,2.3-4.9,4.9-7.8,6.6c-3,1.8-6.3,2.7-9.7,3.7c-3.6,1-7.3,2-10.9,3.2c-1.7,0.5-3.3,1.3-4.8,2.3
		c-1.2,0.8-2,1.8-3.3,2.5c-0.3-1-0.7-1.5-0.4-2.5c0.4-1.2,1-2.4,1.4-3.6c1-2.4,2-4.8,3.3-7.1c2.5-4.5,6-7.2,10.4-9.6
		c1.1-0.6,2.3-1.3,3.5-1.7c1.2-0.4,2.6-0.5,3.8-0.7c2.6-0.6,5.2-1.2,7.9-1.7c1.3-0.2,2.6-0.4,3.8-0.6c1.2-0.2,2.7-0.3,3.7-1
		c1.2-0.9,0.9-3.7,3.1-3.1c2.3,0.6,0.8,3.8,0.5,5.4c-0.2,1-0.8,2.3-0.7,3.3c0,0.9,0.9,2,1,3c0.4,2.4,0.6,4.8,1,7.2
		c0.5,2.6,0.6,5.2,0.3,7.8c-0.6,4.7-2,9.6-4.4,13.6c-2.3,4-5.8,7-8.7,10.6c-0.8,1.1-1.7,1.9-2,3.2c-0.2,0.8-0.5,1.6-1.5,1.4
		c-2-0.3-0.4-5.1-0.1-6.3c0.6-3.1,1.1-6.2,1.6-9.2c0.3-1.5,0.5-3,0.8-4.5C257.9,288,258.4,286.9,258.6,285.7z M226.3,308.7
		c-1.5,0-3.8,0.5-5.2-0.2c-1.3-0.6-1.3-2-1.2-3.3c0.1-0.9,0.6-2.4-0.1-3.2c-0.8-1-2.8-0.9-3.9-1.4c-3.7-1.7,2.8-8-2.3-8
		c-2,0-4.2-0.2-6.1,0.8c-1.7,0.9-3.3,2.7-3.7,4.6c-1.3,5.3,5.5,3.5,7.8,1.5c0.5-0.4,0.5-0.6,0.9-0.5c0.3,0.1,0.7,0.7,0.8,1
		c0.4,0.7,0.5,1.5,0.1,2.2c-0.9,1.6-3.7,2.1-5.1,3.3c-1.2,1-2.5,2.5-2.3,4.2c0.1,0.8,0.4,1.5,1,2c1,0.8,1.9,0.5,3.1,0.3
		c2.1-0.3,3.8-0.8,5.6-2c0.6-0.4,1.5-1.5,2.3-1.2c0.9,0.3,1.1,1.7,1,2.5c-0.5,2-2.9,2.9-4,4.4c-0.4,0.5-1.3,2.1-0.9,2.7
		c0.5,0.7,1.8-0.1,2.5-0.4c2.2-0.9,4.5-2,6.4-3.5C224.7,313.1,225.6,311,226.3,308.7z M266.3,261.7c-2.1,1.8-4.2,3.8-6.7,5.2
		c-2.1,1.2-4.4,2.1-6.6,3.1c-2.1,0.9-4.2,2.1-6.5,2.3c-1.2,0.1-2.3,1.3-3.3,2c-1.1,0.9-2.3,1.8-3.4,2.7c5.3-0.8,10.9-2.1,15.8-4.5
		c2.1-1,4.2-2.4,5.9-4C263.5,266.4,264.8,264.1,266.3,261.7z M233.9,277.4c0.1,0.1,0.3,0.3,0.4,0.4c6.9-7.1,15.2-12.8,24.4-16.4
		c-5.3,1-10.6,2.1-15.4,4.8C238.7,268.8,236.6,273,233.9,277.4z M222.4,305.7c1.2-0.1,3.7,0.1,4.7-0.8c0.9-0.9-0.4-2.9-0.8-3.8
		c-1-2.6-2.5-5.7-5.3-6.8c-0.6-0.2-1.3-0.5-2-0.5c-0.8,0.1-0.5-0.1-0.9,0.6c-0.2,0.4-0.3,1-0.4,1.5c-0.4,1.3-1.5,3,0.3,3.4
		c1,0.2,2.1-0.1,3.1,0.2c0.9,0.2,1.3,0.7,1.5,1.7C222.9,302.6,222.2,304.1,222.4,305.7z M261,298.1c2.7-2.5,4.7-5.5,6.2-8.8
		c0.6-1.3,3.7-9.4,2.3-10C266.6,285.6,263.8,291.9,261,298.1z M268.5,268.5c-0.6,2-1.4,4-1.9,6c-0.1,0.3-0.2,0.8-0.1,1.2
		c0.1,0.4,0.6,0.5,0.6,1c0.1,0.6-0.5,1.1-0.7,1.5c-1.1,2-2,4.1-2.8,6.2c-0.5,1.2-1,2.5-1.5,3.7c-0.3,0.8-1.2,2.5-1,3.3
		c0.2,1.2,1-1,1.2-1.4c0.5-1.1,1-2.2,1.4-3.2c0.9-2.1,1.7-4.2,2.9-6.2c1.1-1.8,1.5-3.9,2-5.9C269.1,272.5,269.7,270.5,268.5,268.5z
		 M244.3,271.5c0.1,0.2,0.1,0.4,0.2,0.5c3.3-1.5,6.7-2.9,10-4.5c1.6-0.8,3.2-1.6,4.7-2.6c0.7-0.4,1.4-0.9,2.1-1.3
		c0.3-0.2,0.9-0.4,1.1-0.7c0.4-0.6,0.1-0.6-0.6-0.4c-1.4,0.4-2.9,1.4-4.2,2c-1.5,0.7-3,1.3-4.5,2C250,267.9,247,269.4,244.3,271.5z
		 M258.7,296.6c0.1,0.1,0.2,0.1,0.2,0.2c0.6-1.4,1.3-2.7,1.9-4.1c-0.3,0-1-0.2-1.2-0.1c-0.4,0.2-0.3,0.6-0.4,1.1
		C259.1,294.8,258.9,295.7,258.7,296.6z"/>
	<path class="st0" d="M55.6,232.6c0.7-0.1,2.8-0.8,3.1,0.3c0.3,1.2-2.3,1.7-3,2c2.8,3.7,6,7.3,8,11.6c2.1,4.4,3.9,9,5.8,13.4
		c1.8,4.2,3.9,8.3,7.2,11.7c1.6,1.6,3.4,2.9,5,4.4c1.9,1.7,3.6,3.2,5.9,4.2c-2.4-2.7-5.3-5-7.5-7.9c-2.2-2.8-4-5.9-5.3-9.2
		c-1.5-3.7-1.5-7.4-2.3-11.2s-1.8-7.6-2.8-11.4c-0.3-0.9-0.5-1.8-1-2.6c-0.3-0.6-1.1-1.4-1.1-2c0.2-1.9,2.1-0.9,2.8-0.1
		c2.1,2.8,5.2,4.5,8,6.4c5.3,3.7,9.4,8.7,11.2,15c1.2,4.2,2.3,8.7,2.6,13.1c0.2,2.3,0.4,4.6,0.6,6.9c0,0.4,0,0.9,0.1,1.3
		c0.2,0.5,0.5,0.4,0.7,0.9c0.4,0.9,0.1,1.3-0.5,2.1c1.5,0.8,2.9,1.5,4.4,2.3c-0.7,0.9,2.5,1.7,3,1.8c1.6,0.3,3.7,0.4,5,1.2
		c0.8,0.5,1.6,1.8,0.3,2.1c-1.3,0.3-3.5-0.7-4.8-1.1c-1.6-0.4-3.3-1-5-0.9c-1.8,0.1-3.6,0.4-5.3,0.8c-1.5,0.4-3.1,1.3-4.6,1.3
		c-1.7,0-3.5-0.6-5.2-0.8c-3.5-0.5-7.3-0.7-10.4-2.6c-2.9-1.8-6.3-3.6-8.7-6.1c-2.2-2.3-3.3-5.2-4.9-7.8c-0.8-1.3-1.8-2.1-2.8-3.1
		c-0.8-0.8-0.6-2.6,0.9-2.5c0.7,0,1.5,0.8,2,1.1c0.8,0.5,1.7,1,2.6,1.4c1.8,0.9,3.7,1.6,5.6,2.3c2,0.8,4,1.6,6.1,2.2
		c1.7,0.6,4.2,1.9,6,1.7c-1.5-1.6-3.2-2.9-4.4-4.8c-1.3-2-2.5-4-3.7-6c-2.3-4.2-3.9-8.8-6-13.1c-2.1-4.2-4.1-8.7-7.4-12.1
		c-0.5-0.6-1-1-1.9-0.8c-0.8,0.3-1.1,1.2-2.1,1c-1.7-0.2-0.7-3.1-0.5-4.2c-2.2,0.3-4.2,1.2-6.4,1c-2.1-0.2-4-1.3-5.6-2.6
		c-3.6-2.9-6.9-7.5-6.7-12.4c0.1-2,1.9-2.5,3.6-2.3c0.2,0,1.3,0.3,1.5,0.2s0.3-1.3,0.4-1.5c0.2-0.7,0.5-1.5,0.9-2.2
		c1.8-2.9,5.2-1.7,7.8-0.6c1-2.5,2.5-5.3,5.6-5.4c3.2,0,4.8,3.4,5.9,5.9c1.2,2.9,2.7,6.3,2.5,9.5c-0.1,1.6-1.3,2.9-2.2,4.1
		C57.7,229.4,55.3,231.7,55.6,232.6z M58.3,222.2c-0.9-2.7-2.7-12.6-7.3-11.1c-2.2,0.7-2.6,3.2-2,5.1c0.2,0.8,0.8,2,0.3,2.8
		c-0.7,1.2-1.9,0.1-2.5-0.6c-1.4-1.6-2.8-4.2-5.3-3.2c-2.7,1-1.2,4.3-0.3,6.1c0.5,0.9,1.2,2.8-0.4,2.6c-1.2-0.1-1.6-1.2-2.4-2
		c-0.7-0.7-1.4-1.7-2.6-1.6c-1,0.1-0.9,0.9-0.9,1.8c0,2.2,1.9,4.9,3.2,6.7c1.6,2.1,3.8,3.6,6.2,4.5c0-1.8-0.7-5.2,0.4-6.7
		c1.1-1.5,3.7-0.1,5.1,0.3c0.3-1.2,0.4-2.3,0.5-3.6c0.1-0.9,0.4-1.7,1.3-2.1c1-0.4,1.9,0,2.9,0.3C55.8,221.7,57,221.9,58.3,222.2z
		 M88,277.1c1-0.5-1.1-2.7-1.6-3.4c-0.8-1.1-1.7-2.2-2.5-3.4c-1.6-2.5-2.7-5.3-3.7-8.1c-1.9-5.6-3.2-11.5-6.5-16.5
		c-0.5,1.2,0.3,3.1,0.5,4.4c0.3,1.7,0.6,3.3,0.9,5c0.5,3,1,5.8,2.3,8.6c1.2,2.6,2.9,4.8,4.5,7.2C83.6,273.3,85.7,275.3,88,277.1z
		 M88.6,286.6c0.1-1.9-5.1-2.1-6.4-2.4s-2.7-0.6-4-1s-2.4-1.1-3.7-1.6c-2.5-0.8-4.5-1.5-6.6-3.1c-2.3-1.7-4.7-3.3-7.1-4.9
		c2.1,4.9,6.3,7.5,10.8,10C76.7,286.5,83,286.9,88.6,286.6z M74.4,242.4c-0.6,0.5,0.4,1.2,0.7,1.8c0.3,0.5,0.7,1,1,1.5
		c0.8,1.2,1.7,2.3,2.6,3.5c1.7,2.2,3.6,4.3,5,6.7c1.4,2.2,2.3,4.6,3.5,6.9c0.6,1.2,1.3,2.3,1.7,3.6c0.4,1.3,0.4,2.7,0.8,4
		c0.7-0.8-0.2-3.2-0.4-4.1c-0.3-1.3-0.6-2.7-0.9-4c-0.7-2.8-1.7-5.6-3-8.2C83,248.8,78.9,245.7,74.4,242.4z M46.8,233.4
		c2.8-0.7,5.6-1.7,7.7-3.7c1-0.9,1.8-1.9,2.5-3.1c0.8-1.4,0.2-1.9-1.1-2.6c-0.8-0.4-3-1.2-3.5-0.4c-0.4,0.7-0.1,2.3-0.2,3.1
		c-0.1,0.7-0.3,1.6-0.9,2.1c-0.7,0.6-1.2,0.3-2,0c-0.5-0.2-2.1-1.1-2.6-1C45.7,228.1,46.7,232.6,46.8,233.4z M88.7,273.5
		c-1.2-7.7-4.8-14.4-9.2-20.7C81.2,260.4,83.7,267.5,88.7,273.5z M82.5,282.2c-4.7-3.7-9.8-6.7-16.1-7.5
		C71.1,279.2,76.9,280.5,82.5,282.2z M88.9,277c-0.2,0.1-0.3,0.3-0.5,0.4c0.5,0.5,0.9,1.1,1.4,1.6c0.6,0.7,0.7,1.4,1.5,0.7
		C90.5,278.8,89.7,277.9,88.9,277z"/>
	<path class="st0" d="M124.3,308.8c3.2,4.5,1.4,12.8-5.3,11.7c-2.6-0.4-4.9-2.5-4.2-5.3c0.4-1.3,1-2.5,2-3.4c0.6-0.5,1.3-0.9,2-1.5
		c0.9-0.8,1.1-1.4-0.4-1c-1.8,0.4-3.6,0.9-5.4,1.2c-1.7,0.3-3.4,0.4-5,1.1c-2.8,1.3-4.6,3.7-8,3.6c-2.4-0.1-5.7-1.3-6.7-3.7
		c-0.9-2.1,0.3-4.5,2.2-5.7c3.6-2.2,7.9-0.4,11.5,0.9c1.8,0.6,3.6,1.4,5.5,0.9s3.9-0.8,5.7-1.5c-2.5-0.6-4.9-1.1-7.1-2.5
		c-1.6-1.1-3.7-3.2-2.9-5.2c0.6-1.6,2.3-3.7,4.1-3.7c2,0,3.8,1.6,5,3.1c1.3,1.6,1.7,3.4,2.5,5.2c1,2.5,4,2.6,6.3,2.3
		c5.5-0.8,11.2-0.7,16.7-0.7c-3.4-1.8-6.7-3.4-9.8-5.8c-1.3-1-2.6-2.2-3.8-3.4c-1.2-1.3-2.1-1.9-3.8-0.9c-2.8,1.6-5,4.4-8.3,2.3
		c-3.2-2.2-1.5-5.5,1.7-6.6c1.8-0.6,3.4-0.1,5.2,0.4c1,0.3,1.7,0.3,0.7-0.7c-0.7-0.8-1.5-1.5-2.3-2.1c-1.4-1.1-2.4-1.8-4.2-1.8
		c-1.6,0-3.2-0.1-4.7-0.7c-2.6-1-5.9-3.8-4.7-7c0.5-1.3,2-2.8,3.3-3.5s3.2-0.2,4.6,0.3c1.7,0.7,2.9,2,3.5,3.8c0.6,1.9,1,3.2,2.3,4.8
		c1.3,1.5,2.8,2.9,4.1,4.5c1.2,1.5,2,3.9,3.8,4.7c-0.4-3.6-0.5-10.4,4.3-11.4c2-0.4,3.5,1.1,4,2.9c0.6,1.9-0.1,4.3-0.9,6
		c-0.4,0.9-1,1.7-1.6,2.5c-0.8,0.9-1.5,1.4-1.3,2.7c0.4,2.1,2.5,3.4,4.1,4.3c4.4,2.6,9.4,3.7,14.3,5c-2.2-3.2-5.6-8.6-2-12.2
		c3.3-3.4,7.6-0.2,7.7,4c0,2.3-0.7,4.5-1.3,6.7c-0.6,2-0.1,2.6,2,2.9c2.6,0.3,5.3,0.7,7.9,0.9c2.6,0.3,5.1,0,7.6,0.1
		c2.6,0.1,5.1,0.1,7.7,0.3c0.8,0.1,6.2,0.7,4.9,2.7c-0.7,1-4.2-0.4-5.2-0.5c-1.2-0.2-2.4-0.4-3.6-0.5c-0.9-0.1-2.5-0.5-3.4-0.2
		c-0.4,0.1-0.9,0.6-1.4,0.8c-0.5,0.1-1,0.2-1.5,0.2c-0.8,0-1.7-0.1-2.5-0.1c-1.8,0.1-4.5,0.7-5.8,2.1c-0.3,0.3-1.4,1.7-1.3,2.2
		c0.1,0.4,1.9,1.5,2.2,1.9c1.1,1.3,2.1,3,2.5,4.7c0.6,3-0.6,8.2-4.7,7.1c-2.2-0.6-3.6-3.3-4-5.4c-0.4-2.5,0.4-5.2,0.9-7.7
		c-1.5,0.9-3.4,1.3-4.4,2.9c-1.1,1.8-2.1,3.3-1.7,5.4c0.4,2.1,0.6,3.7-0.2,5.7c-0.7,1.8-1.7,2.6-3.6,3.2c-1.9,0.6-3.8,0.4-5.4-0.9
		c-2-1.6-1.7-3.1-0.4-5.1c0.6-1,1.3-1.9,2-2.9c0.8-1.1,1-1.3,2.2-1.6c0.8-0.3,1.6-0.7,2.1-1.4c0.3-0.5,1-1.4,1.2-2
		c-3.5,1-8.9,2.8-11.6-0.9c-2.3-3.2,0-6.8,3.3-8c2.1-0.7,3.5-0.5,5,1.1c1.2,1.3,2.6,3.7,4.3,4.4c1.7,0.7,4.4-0.7,5.8-1.5
		c1.9-1.1,3.7-2.4,5.6-3.7c-3.1-0.5-6.2-1-9.2-1.6s-5.8-1.1-8.9-0.9c-6.1,0.2-12.3-0.2-18.3,0.6c-1.4,0.2-3,0.3-4.3,1
		c-1.1,0.6-2,1.6-2.9,2.5c-1,1-1.9,1.9-2.8,2.9c-0.9,0.9-1.4,1.8-0.4,2.9c1.2,1.2,3.5,1,4.6-0.3c0.8-0.9,0.7-2.3,0.9-3.4
		C123.1,311.8,123.6,310.4,124.3,308.8z M106.1,309c-2.3-0.5-4.4-2-6.8-1.9c-1.5,0.1-5.2,1.3-4,3.4C97.8,314.7,104,311.8,106.1,309z
		 M110.4,279.4c1.8,3.1,5.1,5.1,8.7,4c-0.7-2.1-1.2-4.6-3.3-5.7C113.5,276.3,112,277.7,110.4,279.4z M151.1,315.9
		c-1.5-1.1-3.2-3.1-5-3.7c-1.4-0.5-3.5,0.2-4.3,1.5c-1.2,1.9,1.1,2.8,2.6,3.1C146.7,317.3,149.1,317,151.1,315.9z M155,303.2
		c1.2-1.9,2.9-7.6,0.2-8.9c-0.9-0.4-1.7-0.1-2.4,0.7c-0.6,0.8-0.4,1.7-0.3,2.6C152.6,299.7,153.2,301.8,155,303.2z M145.3,328.3
		c1.3,1,3.3,2,4.9,1c1.4-0.8,1.5-2.8,1.3-4.3c0-0.4-0.1-0.8-0.2-1.2c-0.2-0.7-0.1-0.7-0.8-0.7s-1.7,0.6-2.2,1.1
		C147,325.2,146.1,326.7,145.3,328.3z M132.9,293c2.2,0.2,5.7-7.8,2.7-8.8c-1.7-0.6-2.8,1.9-2.9,3.1
		C132.4,289.3,132.7,291,132.9,293z M117.3,303.4c0.3-2.2-3.1-7-5.7-5.6c-1.9,1-0.5,2.7,0.6,3.5
		C113.7,302.4,115.4,303.3,117.3,303.4z M162.5,316.1c-0.8,1.6-1.1,3.5-0.9,5.3c0.2,1.2,0.8,3.3,2,4c1.5,0.8,1.9-2.4,1.6-3.3
		C164.5,319.9,163.4,318,162.5,316.1z M123.7,293.1c-0.2-0.9-0.9-0.7-1.8-0.9c-0.7-0.1-1.5-0.3-2.2-0.1c-0.8,0.2-2.2,1-1.9,2
		c0.2,0.7,1.4,1.3,2.1,1.2C121.2,295.2,122.7,293.8,123.7,293.1z"/>
	<path class="st0" d="M293,133.2c-1.1,0.5-2,0-2.9-0.7c-1.1-0.9-2.3-1.6-3.7-2.2c-2.8-1.2-5.7-2.1-8.1-4.2c-4.6-4-8-9.5-9.5-15.4
		c-1.4-5.5-1.6-10.9-6.1-15c-0.9-0.9-2-1.5-3-2.2c-1.2-1-2.1-2.3-3-3.5c-0.6-0.8-1-1.6,0-2.4c1.2-1,1.8,1.3,2.3,2
		c3.4,4.7,9.2,8.2,15.1,7.8c3.1-0.2,5.9-1.5,9-2.1c3.3-0.7,6.6-0.8,9.9-0.2c3.1,0.6,6,1.8,8.7,3.3c2.6,1.4,5.3,3,7.4,5.1
		c1.8,1.8,3.2,4,4.1,6.3c0.5,1.2,2.8,6.6-0.1,6.5c-1.3-0.1-3.3-1.7-4.3-2.4c-1.5-1-2.9-2-4.2-3.2c-2.8-2.2-5.4-4.4-8.5-6.2
		c-5.9-3.3-13.6-7.3-20.5-4.5c3.1,1.2,6.3,1.8,9.3,3.3c2.9,1.4,5.5,3.3,7.7,5.6c4.9,5,7.1,11.8,9.5,18.2c0.4-0.5,0.7-1.2,1.1-1.7
		s0.6-0.7,1.1-0.3c0.9,0.7,0.1,2.8,0,3.7c4.3,0.5,7.9,1.6,11,4.9c2.3,2.5,5,6.7,3.9,10.2c-0.5,1.6-2,3-3.6,3.6
		c-0.2,0.1-1.2,0.2-1.3,0.3c-0.2,0.2-0.3,0.9-0.4,1.2c-0.2,0.6-0.5,1.3-0.9,1.9c-1.8,2.5-5.2,0.4-7.3-0.6c-0.6,1.4-0.9,3.2-2.3,4
		c-1.3,0.8-2.8,0.2-4-0.4c-2.6-1.2-4.4-3.5-5.5-6.1c-0.6-1.4-1.6-2.7-1.7-4.2c-0.1-1.8,0-3.6,0.3-5.4c0.3-1.7,1-3.6,2-5
		c0.9-1.3,2.6-2,3.8-2.9c-1.3-0.7-4.6-1.6-3.1-3.7c1.3-1.8,3.5,1.2,4.7,1.8c-1.6-6.5-4.1-12.9-8.7-17.9c-4.5-4.9-11-6.6-17.2-8.4
		c5,3.6,11,7.3,14.2,12.8c1.6,2.8,2.8,5.8,3.5,8.9c0.4,1.6,0.5,3.3,1,4.9c0.2,0.8,0.6,1.6,0.6,2.4
		C293.5,131.7,293.2,132.4,293,133.2z M293.1,100.1c-0.2-0.3-0.4-0.6-0.5-0.8c2.2-0.1,4.3,0.7,6.3,1.4c-3.5-2.3-7.7-2.7-11.7-3.2
		c1,0.7,2.1,1.2,3.2,1.7c0.6,0.2,1.2,0.4,1.8,0.6c0.6,0.2,0.8,0.4,1.2,0.7c1.8,1.2,3.9,2,5.7,3.2c4,2.5,6.9,6.5,11.1,8.8
		c1,0.5,2.1,1.5,1.8-0.1c-0.3-1.2-0.8-1.2-1.7-1.7c-0.8-0.4-1.3-1.1-2-1.7c-0.7-0.7-1.5-1.2-2.4-1.8c-1.8-1.3-3.6-2.6-5.5-3.7
		C298.2,102.2,295.6,101.2,293.1,100.1z M295.1,140.9c-1,3.5,1.1,8.6,4.2,10.6c1.7,1.1,3.2,1.1,3.1-1.1c-0.1-1.3-0.3-2.5-0.4-3.7
		c0-0.4-0.3-1.7,0.1-2c0.7-0.6,2.1,0.1,2.5,0.7c0.5,0.7,0.7,1.6,1.2,2.3c1,1.4,2.4,2.4,4.1,2.5c2.2,0.2,2.4-1.6,2.1-3.4
		c-0.1-1.1-0.5-2-1-3c-0.7-1.3-0.7-1.5-0.5-3c1,0.3,1.5,0.1,2.1,0.9c0.3,0.4,0.6,0.9,0.8,1.3c0.2,0.5,0.1,1.1,0.3,1.6
		c0.7,1.9,2.9,0.5,2.9-1.1c0-1.1-0.8-2.2-1.2-3.1c-0.5-1.1-1.2-2.1-1.9-3.2c-1.2-1.7-2.5-3.4-4.7-3.8c0,2.1,0.5,4-2.1,4.1
		c-1.4,0.1-2.7-0.5-3.4,0.9c-0.8,1.6-0.4,3.7-2.4,4.4C298.7,143.5,296.7,142.3,295.1,140.9z M273.2,114.6c4.4,7.7,8,11.4,15.9,13.7
		C288,124.9,276.8,116.9,273.2,114.6z M271.4,106c-0.6,0.7,1.2,3.4,1.7,4.2c0.8,1.5,1.7,2.6,3,3.7c3,2.5,6.2,4.8,9.2,7.2
		C282.6,114.4,276.8,110.2,271.4,106z M306.2,134.7c-0.4-1.5-0.3-3.2-2.4-2.9c-0.9,0.1-1.4,0.9-2.2,1.2c-0.7,0.2-1.5,0.1-2.2,0.5
		c-1.4,0.6-3,1.9-3.5,3.5c-0.6,2,2.2,2.9,3.6,3.7c0.2-1.6,0.3-3.6,1.4-5C302.1,133.8,304.4,134.1,306.2,134.7z M289.6,125.5
		c0.9-0.4,0.2-1.1,0-1.8c-0.2-0.5-0.3-1.1-0.5-1.6c-0.4-1.2-0.8-2.4-1.4-3.6c-1.1-2.2-2.5-4.3-4.4-5.9c-3.9-3.4-7.4-7.2-12.1-9.6
		c1.4,2.1,4,3.6,5.9,5.2s3.8,3.2,5.4,5.1C285.5,116.9,287.2,121.4,289.6,125.5z"/>
	<path class="st0" d="M70,78.8c-0.8,9.1-4.1,17.6-8.7,25.4c3.9-2.8,8.1-5.3,12.1-7.9c3.2-2.1,6.2-4.4,8.2-7.7
		c0.9-1.5,1.2-3.3,2.2-4.8c1.6-2.5,1.8,3.2,1.9,4.1c0.3,4.4,0.2,9.3-0.7,13.7c-0.9,3.9-3.2,5.9-6.7,7.6c-4.1,2-8.4,3.6-12.8,4.9
		c-4.1,1.2-8.3,2-12.2,3.8c-3.7,1.7-5.3,4.1-6.6,7.8c-0.8,2.3-1.4,4.7-1.6,7.1c-0.1,1.1,0.8,4.4-1,4.4c-2.4,0-1-4.1-0.8-5.3
		c0.2-1.3,0.5-2.5,0.7-3.8c0.1-0.6,0.1-1.1,0.1-1.7c0-0.8,0.1-1.1-0.7-1.3c1.5-2.2,2.9-4.4,4.4-6.5c1.3-1.9,3.2-3.7,2.6-6.1
		c-1.3-4.9-2.6-9.6-2.5-14.8c0.1-5,1.7-9.7,2.9-14.4c0.7-2.5,1.3-5.1,1.9-7.6c0.3-1.3,0.6-2.6,0.9-3.8c0.4-1.3,1.1-1.8,2-2.7
		c1,1.3,1.3,2,1.6,3.7s0.5,3.4,0.9,5c0.6,3.3,1.5,6.5,2.2,9.7c0.7,3.1,1.2,6.1,0.5,9.2c-0.6,2.9-2,5.6-3.3,8.2c2.3-2,3.8-5.1,5-7.7
		c1.6-3.4,2.9-7,4-10.6c0.4-1.4,0.8-2.8,1-4.2c0.1-0.6,0.5-2.2,0.1-2.8c-0.6-0.8-4,2.7-5,0.6c-1.1-2.3,2.9-2.4,4.1-2.7
		c-2.7-2.2-4.9-4.2-6.3-7.4c-1.3-3.1-2.1-6.6-1.7-9.9c0.3-2.4,1.4-7.4,4.9-6.1c1,0.4,1.8,2.2,2.8,1.7c0.5-0.2,0.9-1.2,1.3-1.7
		c0.5-0.6,1-1.1,1.6-1.5c2.5-1.7,5.9-1.1,7.5,1.5c0.3,0.6,0.5,1.2,0.6,1.8c0.2,1.2,0.3,1,1.6,1c1.6-0.1,3,0.1,4.2,1.3
		c1.9,2,1.9,5.5,1.5,8c-0.5,3.2-2.3,6-4.5,8.2c-1.3,1.3-2.8,2.4-4.5,3.2c-1.3,0.6-3.5,0.7-2.3,2.5c0.4,0.6,0.9,1.1,0.6,1.8
		c-0.2,0.5-1.1,1.1-1.6,0.9c-0.6-0.2-0.7-1.4-0.9-1.9C71.3,79.9,70.8,79.5,70,78.8z M64,69.1c1-1.2,2.2-3.3,3.9-3.5
		c0.9-0.1,1.7,0.5,2.3,1.2c0.5,0.5,0.8,1.5,1.6,1.5c1.7,0.2,2.7-2.4,4.5-1.4c0.8,0.4,1.3,1.4,1.9,2c0.8,0.9,1.6,1.8,2.3,2.7
		c1.3-1.6,2.5-3,3-5.1c0.4-1.7,0.7-4.3,0-6c-0.5-1.2-2.2-2.2-3.4-1.5c-0.7,0.4-1,1.4-1.5,1.9c-0.3,0.3-0.5,0.4-0.8,0.6
		c-0.7,0.4-0.6,0.4-1,0c-1.5-1.4-0.3-4.4-1-6.1c-0.6-1.6-2.7-1.8-4.2-1.3c-3.7,1.4-3.4,6.5-4.3,9.6c-1-0.5-1.5-0.7-1.8-1.9
		c-0.3-1.3,0.2-2.5,0.2-3.8s-1.9-3.1-2.6-1.4c-0.3,0.8-0.1,1.9-0.1,2.7c0,1.1-0.4,2.2-0.4,3.3C62.6,65,63.2,67.2,64,69.1z
		 M81.7,93.4c-0.7-0.5-0.9,0-1.5,0.4s-1.1,0.8-1.7,1.2c-1.2,0.9-2.4,1.8-3.6,2.7c-2.3,1.6-4.7,2.9-7,4.4s-4.5,3.2-6.7,5
		s-4.7,3.6-6.3,5.9c5.3-2.7,10.3-5.6,15.4-8.6c2.2-1.3,4.4-2.6,6.2-4.3C78.7,98.3,80.1,95.8,81.7,93.4z M54.6,106.3
		c5.1-7.4,3.1-16.5,1.8-24.7c-0.1-0.4,0.1-1.1-0.6-0.9c-0.2,0.1-0.3,1.4-0.4,1.6c-0.2,1.2-0.4,2.3-0.6,3.5c-0.3,2.2-0.4,4.5-0.4,6.7
		C54.4,97.2,54.7,101.8,54.6,106.3z M75.3,69c-0.8,0.8-1.5,2-2.8,2.1s-1.9-0.7-2.7-1.5c-0.6-0.6-1-1.1-1.9-0.7
		c-0.7,0.3-2.3,1.7-2.3,2.5c-0.1,1.9,3.9,3.6,5.4,3.9c2.9,0.7,5.1-0.3,7.4-1.8C77.5,72,76.6,70.5,75.3,69z M76.4,102.5
		c-6.1,3.7-11.9,7.2-18,10.9C65.7,113.1,72.7,108.8,76.4,102.5z M73.5,108.9c7.2-1.6,10.5-8.3,9.5-13.4
		C81.8,101.3,76.6,104.3,73.5,108.9z M52.5,89.2c-1.1,0-1.5,4-1.7,5c-0.3,1.8-0.4,3.7-0.3,5.6c0.2,3.8,0.9,7.5,2,11.1
		C52.5,103.7,52.5,96.5,52.5,89.2z"/>
	<path class="st0" d="M291.1,227.4c1.9,2.9,4.2,5.6,5,9.1c0.6,2.5-0.1,6.8-3.2,7.4c-2.9,0.5-4.9-3.3-5.4-5.6c-0.3-1.4-0.3-3,0-4.4
		c0.2-0.9,0.5-1.7,0.7-2.5c0.3-1.1,0.2-1.9-0.7-0.6c-2,2.6-4.7,5.2-5.9,8.2c-0.7,1.7-0.2,3.1-0.3,4.8c0,1.5-0.4,2.9-1.1,4.2
		c-1.4,2.5-4.4,4.8-7.3,3.2c-2.5-1.5-2.5-4.7-1.3-7.1c1.5-2.9,4.9-4.3,7.1-6.7c2.7-3,5.4-6,8.1-9c-3.1,0.6-8.6,2.4-11.3,0.1
		c-0.6-0.5-0.8-1.2-1.2-1.9c-0.2-0.3-0.7-0.7-0.8-1c-0.1-0.4,0.1-0.6,0.4-1c1.1-1.4,2.3-2.6,4-3.2c3.7-1.4,7.8,0.4,11.6,0.5
		c2.1,0.1,3.1-1.1,4.5-2.6c1.3-1.5,2.4-3.3,3.1-5.2c-2.4,0.2-4.4,0.5-6.8-0.1c-1.7-0.5-4-0.8-5.2-2.2c-1.1-1.3-1.1-2.9,0.1-4.1
		c1.5-1.5,3.7-1.6,5.7-1.3c3.2,0.6,8.8,2.5,10.5-1.3c1.9-4.1,2.4-8.3,3-12.7c-3.6,2.8-7.6,7.3-12.6,5c-2.1-1-3.4-3.2-2.4-5.5
		c0.9-2.2,3.4-2.1,5.4-2.4c1.3-0.2,2.7-0.5,4-0.7c0.6-0.1,1.2-0.2,1.8-0.1c0.4,0,0.7,0.2,1.1,0.3c1.1,0.1,1.1-1.1,1.5-2.1
		s0.9-1.7,0.9-2.7c-0.1-2.8-1.2-5.8-1.6-8.5c-0.3-1.5-0.5-3-0.7-4.4c-0.2-1.5,0-1.5,0.9-2.6c0.7,0.9,0.9,1.3,1,2.5
		c0.1,1.3,0.2,2.7,0.4,4c0.3,2.5,1.2,5,1.9,7.5c0.7,2.5,1.4,4.9,1.5,7.6c0.2,2.7,0.6,5.3,1.1,8c0.1,0.4,0,1.3,0.3,1.6
		c0.4,0.4,0.7,0.1,1.3,0c1.2-0.3,2.4-0.5,3.6-0.5c2,0,4.7,0.6,6.1,2.2c2.3,2.7,1.7,7.4-1.3,9.4c-2.4,1.6-4.5-0.7-6.3-2.1
		c-1-0.7-1.9-1.5-2.6-2.5s-1.1-1.9-2-2.7c-0.2,5-2.1,10.1-1,15.2c0.2,1,0.4,0.9,1.4,0.8c0.6,0,1.2-0.1,1.8-0.1
		c1.2-0.1,2.4-0.1,3.6,0c2.2,0.3,4.7,1.4,6.3,3c1.4,1.4,0.7,3.7-0.1,5.3c-1,2-2.2,3.5-4.5,3.3c-2-0.2-4-1.2-5.5-2.5
		c-0.7-0.6-1.4-1.4-1.9-2.2s-0.7-2-1.8-2.1c0.5,2.6,0.6,5.8,1.6,8.3c0.9,2.1,3.1,3.6,4.4,5.5c2.3,3.2,3.4,9.9-1.8,10.8
		c-3.5,0.6-7.3-2.5-6.2-6.1c0.3-1.1,0.7-2.1,1-3.3c0.3-1.3,0.9-2.5,1-3.8c0.3-2.6-0.8-5.6-1.5-8.1c-3,2.4-6.2,5.5-10.1,2.6
		c-1.3-0.9-1.8-2.5-0.9-3.9c1-1.6,3.4-1.9,4.9-2.9c1.6-1.1,3.1-2.6,4.4-4c1.5-1.6,1.5-3.7,1.8-5.8c0.7-5.1,1.8-10.4,1.5-15.5
		C303,208.6,297.6,218.4,291.1,227.4z M307.4,222.4c1,2,2,3.9,3.9,5.2c1.4,0.9,4.5,2,5.4-0.1s0.8-3.9-1.4-4.8
		C312.7,221.7,310.2,222.2,307.4,222.4z M309.5,202.2c0.6,2,1.5,3.4,3.2,4.6c1.2,0.9,4.2,3.5,5.3,1c0.7-1.6,0.7-3.8-0.8-5
		C315.4,201.4,311.6,202.2,309.5,202.2z M307.5,237.4c-0.2,1.3-0.4,2.5-0.7,3.8c-0.2,0.8-0.6,1.6-0.6,2.4c0,1.1,1.4,2.6,2.5,2.9
		c1.9,0.6,2.1-3.2,2-4.4C310.8,240,309.4,238.2,307.5,237.4z M287.9,224.4c-1.9-0.6-4-1.5-6-1.4c-1.6,0-3.8,0.9-4.5,2.5
		c-1,2.4,3,1.3,4,1.1C283.9,226.1,285.8,225.5,287.9,224.4z M292.1,241.8c1.7-2.6,0.7-8.1-1.7-10
		C288.6,236.3,288.8,240.3,292.1,241.8z M278.7,241.7c-1.6,0.7-3.2,1.6-4.2,3.1c-0.6,0.9-1.7,3.3-0.7,4.2c1.3,1.2,3.4-0.8,4-1.9
		C278.7,245.6,279.1,243.5,278.7,241.7z M301.2,191c-2.2,0.4-4.3,0.8-6.5,1.3c-1.4,0.3-4,1.1-2.2,2.9
		C295.3,197.7,299.7,193.2,301.2,191z M297.1,209.7c-2.1-0.3-4.3-1-6.4-0.8c-1.7,0.2-4.2,1-1.5,2.2
		C292.4,212.5,294.6,212.3,297.1,209.7z M302.4,222c-1.5,1.2-3,2.4-4.5,3.7c-0.6,0.5-1.2,0.9-1.6,1.7c-0.4,0.9,0.2,1.2,1.1,1.3
		c1.4,0.2,2.6-1.4,3.4-2.4C301.8,225.1,302.7,223.7,302.4,222z"/>
	<path class="st0" d="M36.3,184.8c-0.7,3.6-5.5,7.7-9.3,6.4c-5.2-1.9-1.8-7.6,1.5-9.3c0.8-0.4,1.7-0.7,2.6-0.9
		c0.7-0.1,2.4,0.2,2.8-0.2c0.9-0.9-0.4-4.2-0.8-5.1c-0.2-0.4-0.9-2-1.4-2c-0.5,0-1.7,1.6-2.1,1.8c-1.7,1.2-4,1.7-6.1,1.5
		c-5-0.6-6.1-5.8-2.5-8.9c1.5-1.3,3.3-1.6,5.2-0.9c0.9,0.3,1.7,0.8,2.5,1.4c0.4,0.3,1.2,1.2,1.6,0.9c0.5-0.3-0.4-1.6-0.7-2.1
		c-0.6-1.2-1.1-2.5-1.7-3.7c-0.6-1.3-1.4-1.7-2.6-2.5c-1.8-1.2-4-2.2-4.8-4.4c-1.2-3.5,0.9-8,5.1-7.8c2,0.1,3.4,1.5,3.9,3.4
		c0.8,2.8-0.8,5.5-0.3,8.3c0.6,3,2.1,5.9,3.2,8.7c1.2,3,2.5,6.1,4.2,8.9c0.5-3.2,0.9-6.4,1.7-9.5c0.8-2.9,2.1-5.6,3.2-8.4
		c0.3-0.8,0.9-1.9,0.3-2.7c-0.6-0.8-2.4-0.9-3.3-1.4c-1.9-0.9-3.9-2.6-4.9-4.5c-1.4-2.9,0-8.9,3.9-8.8c1.9,0,4,1.3,4.7,3.2
		c0.5,1.2,0.5,2.6,0.7,3.8c0.3,1.7,0.7,3.4,1,5.1c1.6-2.4,3.3-4.7,5-7.1c1.7-2.2,3.6-4.5,4.4-7.3c0.4-1.5,0-2.1-0.5-3.5
		c-0.5-1.1-0.7-2.5-1-3.7c-0.4-2.1,0.5-5.2,2.3-6.5c1.4-1,4.4-0.6,5.9-0.1c2.6,0.9,3.2,3.2,2.1,5.4c-0.5,1-1,2-1.7,2.8
		c-0.8,0.9-1.8,1.2-2.6,1.9c-0.7,0.7-1.1,2.2-1.4,3.1c-0.5,1.3-1,2.7-1.6,4c2.4,0,7.8-0.1,8.4,3c0.7,3.7-4.5,5.1-7.2,5.1
		c-1.9,0-3.6-0.7-5.6-0.4s-2.6,1.1-3.5,2.8c-1,1.9-1.9,3.8-2.9,5.7c-0.9,1.8-2.1,3.6-2.3,5.7c1.3-0.8,2.3-1.9,3.8-2.2s3-0.1,4.5,0.3
		c2.4,0.7,6,2.6,4.7,5.6c-0.8,2-3.9,4-5.9,3.3c-1.5-0.5-3-1.4-4.4-2.2c-0.9-0.5-2.1-2-3.2-1.2c-1,0.7-1.1,2.5-1.3,3.6
		c-0.3,1.8-0.6,3.7-0.9,5.5c-0.5,3.5,0.1,6.8,0.4,10.3c0.3,3.4,0.5,7,0.1,10.5c-0.1,1.4-0.2,3.1-0.8,4.4c-0.4,0.9-1.4,1.9-2,0.6
		c-0.5-1,0.2-2.9,0.4-3.9c0.3-1.8,0.7-3.6,0.6-5.4c0-1.9-0.3-3.8-0.5-5.7C37.4,188.8,37.2,184.8,36.3,184.8z M38.5,144.9
		c-1.2,0.5-2,0.5-2.2,1.9c-0.2,1.1-0.2,2.4,0.1,3.4c0.5,1.9,1.9,3.4,3.8,4c0.7,0.2,1.6,0.6,2-0.1c0.3-0.7-0.5-3-0.6-3.7
		C41.2,148.2,41.3,145.3,38.5,144.9z M30,171.3c-1.8-1.2-3.9-3.3-6.2-2.8c-1.9,0.4-3.1,2.4-2.5,4.3C22.6,176.7,28.6,173.6,30,171.3z
		 M27,159.7c0.6-2.2,1.3-4.5,0.7-6.8c-0.5-2.1-1.8-2.9-3.7-1.5c-1.5,1.1-2,2.9-1.3,4.6C23.5,157.7,25.4,158.7,27,159.7z M54.8,137.1
		c1.5-1.3,3.4-2.1,4.3-3.9c0.8-1.5,1.6-3.8-0.6-4.6c-1.5-0.5-3.2,0.3-4,1.6C53.3,132.2,54.2,134.9,54.8,137.1z M43.8,168.5
		c1.2,0.6,2.3,1.3,3.5,2c0.9,0.5,1.9,1.2,2.9,1c1.5-0.3,3.1-3.1,1.8-4.4c-0.8-0.8-3.2-1-4.3-1C45.9,166,44.6,166.9,43.8,168.5z
		 M50.5,149.8c0.3,0.7,2.4,0.2,3.2,0.3c1.2,0.1,2.2,0.6,3.5,0.3c1.4-0.3,4.8-1.7,3.2-3.5c-1.1-1.2-4.2-0.9-5.6-0.3
		C53.1,147.4,52.1,149,50.5,149.8z M26.4,187.8c0.6,0.6,0.8,1.3,1.8,1.3c0.9,0,1.9-0.7,2.5-1.2c1.1-0.9,3.1-2.8,2.8-4.4
		c-0.3-1.9-2.8-0.7-3.7-0.1C28.2,184.3,26.6,185.9,26.4,187.8z"/>
	<path class="st0" d="M208.8,57.2c0.6-1.2,1.4-1.3,2.6-1c1.4,0.4,2.8,0.8,4.3,1.1c1.4,0.3,2.9,1,4.3,1.1c1.6,0.1,3.1-0.5,4.6-0.7
		c-1-4-1.5-7.9,0.6-11.7c1.1-2,2.8-2.5,4.9-3.1c1.3-0.4,3.6-1.2,4.8-0.3c1,0.8,0.5,2,0.4,3c-0.3,1.7,0.5,3.4,0.1,5.1
		c-0.9,3.9-6.2,5.2-7.7,8.8c3.9,0.8,9.6,3.4,12.7-0.5c1.3-1.6,1.7-3.5,3.3-4.9c1.7-1.5,3.8-1.9,5.9-2.4c1.8-0.4,4.1-1,5.2,0.9
		c1.3,2.2-0.3,4-1.7,5.6s-2.8,2.7-5,3c-2.6,0.4-5.1,0.5-7.6,1.2c4.2,2,8.3,4,12.5,6c0.7,0.4,0.7,0.3,1.3,0.1c0.5-0.2,1.1-0.7,1.6-1
		c1-0.6,2.1-1.3,3.1-1.9c2-1.2,3.4-1.5,5.7-1.4c1.7,0.1,4.2,0,4.9,2c0.5,1.3,0.2,3.3-0.6,4.5c-1.1,1.6-3.5,1.6-5.2,1.8
		c-2.3,0.2-4.3-0.2-6.6-0.6c1.9,1.9,3.6,4.1,6.1,5.4c2.2,1.1,4.5,1.4,6.4,3c3.4,2.8,5.2,9.5-0.7,10.5c-2.1,0.3-4.4-0.1-5.9-1.6
		c-2-2.1-1.5-4.4-1.4-7c0.1-2.8-2.9-5.4-4.7-7.3c-2-2.1-4.8-3.8-7.5-5c1,1.9,2.5,3.5,3.2,5.6c0.6,1.7,1.1,4.3,0.5,6.1
		c-0.6,1.8-2.4,1.8-4,1.8c-0.9,0-1.9,0.2-2.6-0.5c-0.6-0.7-0.8-2-1-2.8c-0.6-2.4-1-4.8-0.9-7.3c0.1-2,0.4-3.9-1.1-5.5
		s-3.7-2.4-5.8-3.1c-2.3-0.7-4.7-1.7-7.1-2c1.4,2.2,3.4,4.2,4.7,6.4c0.8,1.4,0.6,3.2,0.1,4.7s-1.4,2.9-3.1,2.1
		c-1.5-0.7-3.2-1.4-4.1-2.9c-1.2-2-0.8-4.8-1-7.1c-0.2-2.3-1.7-3.4-3.7-4.3C218.8,59.1,213.5,59,208.8,57.2z M264.2,80.5
		c-0.5,2-1.3,4.6,0.1,6.4c1.1,1.4,3.1,2.1,4.8,1.9C275.1,87.8,265.8,81.5,264.2,80.5z M232.6,44.9c-1.2,0.4-2.5,0.8-3.7,1.3
		c-1.1,0.5-1.4,1-1.8,2.1c-0.9,2.5-0.9,4.9-0.2,7.4c1.3-1.5,2.6-2.8,3.3-4.6C231.1,49.1,231.8,47,232.6,44.9z M257.5,70
		c2,0.4,10.2,2.5,10.1-1.4c-0.1-1.8-3.1-1.5-4.3-1.4C260.9,67.4,259.5,68.8,257.5,70z M243.6,59c4.8,0.3,8.6-1.4,9.4-4.2
		C250.1,53.4,244.6,55.8,243.6,59z M247.4,72c-0.1,1.5-0.2,10.7,2.9,9.2C253.3,79.7,249.1,73.2,247.4,72z M230.3,66.6
		c-0.3,1.4-0.5,2.8,0,4.1c0.4,0.9,1.5,2.2,2.6,2.1C236,72.5,230.9,67.3,230.3,66.6z"/>
	<path class="st0" d="M55.2,182.8c1.8,0.2,4.8,0,6,1.6s-0.2,3.4-1.4,4.5c-1.5,1.4-3.2,1.9-5.3,2c-1.3,0.1-2.6,0.4-3.9,0.7
		c-0.8,0.2-2.2,0.8-3.1,0.5c-2.3-0.7-1.4-3.9-0.9-5.4c0.8-2.3,1.6-4.9,3-6.9c0.8-1.1,3.5-3.7,5-3.1C57,177.8,55.6,181.2,55.2,182.8z
		 M50.3,188.9c1-0.1,2.1-0.3,3.1-0.2c0.8,0,1.6,0.1,2.4-0.1c0.9-0.3,4.2-2,3.3-3.3s-3.7-0.5-4.8,0.1
		C52.8,186.2,51.6,187.6,50.3,188.9z M53.7,178.9c-2.2,0.9-5.5,4.6-5,7.2C51,184.4,54.5,182.3,53.7,178.9z"/>
	<path class="st0" d="M205.3,68.6c-0.5,1.2-0.6,3.3-2.2,3.5c-1.6,0.2-3.8-1.1-4.6-2.3c-1.2-1.7-1-4-1.1-5.9s-1.2-4.1,1.2-4.7
		c0.2,1.4,0.5,2.9,0.7,4.3c0.2,1.2,0.1,2.7,0.6,3.8c0.3,0.9,2.2,3.2,3.3,2.1c2-2.2-6.7-10.5-1.5-10.7c1.9,0,4.3,1.2,5.8,2.2
		c1.7,1.1,3.2,2.5,4.5,4.2c1.4,1.8,1.9,3.9-0.3,5.3C209.2,71.7,207.2,69.9,205.3,68.6z M203.7,61.1c-0.5,0.8,0.6,1.9,1.1,2.7
		c0.6,0.9,1.1,1.8,1.8,2.6c0.7,0.9,2.9,3.2,4.2,2.1C213.5,66.3,205,61.8,203.7,61.1z"/>
	<path class="st0" d="M289.4,261.1c0,2.3,0.8,6.3-1.3,7.9c-1.7,1.4-3.9-1.6-4.6-3c-1.2-2.4-0.5-4.6-0.2-7.1c0.2-1.1,0.5-2.4,0.3-3.5
		c-0.1-0.9-0.6-1.5,0.3-2.1c1.3-0.9,4.3-0.4,5.7,0c1.9,0.6,3.5,1.7,4.7,3.3c1.1,1.5,2.2,4.1,0.6,5.7
		C293.2,264.1,290.8,262.1,289.4,261.1z M293,261.3c1.2-1.7-0.5-3.4-1.8-4.4c-1.5-1.2-3.4-1.5-5.3-1.4c0.1,0.5,0.1,1.1,0.5,1.6
		c0.5,0.6,1.6,1.1,2.2,1.5C290.1,259.4,291.6,260.4,293,261.3z M285.2,259.3c-0.2,1.5-0.6,3-0.4,4.5c0.1,0.8,0.9,3.7,2,3.2
		c0.9-0.4,0.4-3,0.3-3.6C286.9,261.8,286.3,260.4,285.2,259.3z"/>
	<path class="st0" d="M284.5,81.7c1.2,0.8,4.1,2.3,2.8,4.1c-1.2,1.6-3.4,1.4-5.1,1.1c-2.1-0.4-3.7-1.6-5.1-3.2
		c-0.7-0.8-1.2-1-2.2-1.3c-0.8-0.3-1.4-0.6-1-1.6c0.4-0.9,1.8-1.1,2.6-1.5c1-0.4,2-1.1,3-1.7c2.1-1.3,4.1-2.4,6.5-2.7
		c1.8-0.2,3.9,0.1,3.3,2.5C288.8,79.2,286,80.8,284.5,81.7z M280.7,79.5c2.2,0,4.2-0.1,5.7-1.9C284.7,77.3,282.4,78.1,280.7,79.5z
		 M280.3,82.6c-0.8,2,3.2,2.3,4.4,1.8C283.2,83.9,281.8,83.2,280.3,82.6z"/>
	<path class="st0" d="M312.1,173.4c3.5-1.9,7.5-2.1,11.1-0.3c1.2,0.6,2.2,1.5,1.8,3c-0.4,1.6-2.5,2-3.8,2.6c2.2,1.1,3.2,4.8,1.6,6.8
		c-2.4,3.1-5.3,0-7.1-2c-2.1-2.4-3.7-5.2-5.1-8.1c-0.4-0.8-0.8-1.6-1.1-2.4c-0.2-0.5-0.4-0.6-0.2-1c0.2-0.2,0.7-0.4,0.9-0.4
		C311.2,171.6,311.5,172.8,312.1,173.4z M314.7,178.3c-0.2,0.8,0.8,1.5,1.3,2.2c0.7,0.9,1.4,1.8,2.1,2.7c0.8,1,2.5,3.7,3.5,1.4
		C323.2,180.7,317.1,179.3,314.7,178.3z M312.5,174.7c1.4,1.4,3.4,1.9,5.3,2.2c1.4,0.2,3.3,0.7,4.5-0.4c1-0.9,0.4-1.3-0.6-1.8
		c-0.9-0.4-1.8-0.6-2.8-0.6C316.7,174,314.7,174.6,312.5,174.7z"/>
	<path class="st0" d="M175.5,291.2c0.3-1.6,0.5-3.9,2.5-4.4c1.7-0.4,3.1,1.2,3.7,2.6c0.9,2.2,1.5,4.5,0.4,6.7
		c-0.4,0.9-1.1,1.7-1.4,2.7c-0.2,0.8-0.1,2.3-0.9,2.7c-1.7,1-3.3-1.7-4.3-2.6c-1.7-1.4-3.3-2.8-4.8-4.5c-1.1-1.3-3.1-3.4-0.7-4.6
		C172.1,288.9,173.8,290.2,175.5,291.2z M178.3,289c-1.4,2.6-1,5.8,0.8,7.7C181,294.4,180.5,290.7,178.3,289z M175.7,297.4
		c0.3-1.9-2.6-5.5-4.6-5.9C170.8,293,172.6,295.2,175.7,297.4z"/>
	<path class="st0" d="M101.3,274.7c-1.2-0.5-1.9-0.7-2.7-1.8c-0.7-0.9-1.2-1.9-1.6-3c-0.7-1.7-1.7-4.1-1.5-6
		c0.2-1.8,1.7-2.9,3.5-2.6c1.9,0.3,2.1,2.2,2.3,3.7c1.2-1.2,2.6-2.9,4.5-2c1.4,0.7,2.6,3,2.4,4.6c-0.2,2-1.9,3.6-3.1,5
		c-0.6,0.7-1.5,2.1-2.3,2.5C102,275.5,101.8,275.1,101.3,274.7z M102.1,271.8c3.4-2.7,3.9-4.4,2.1-6.7
		C102.4,266.9,102,269.1,102.1,271.8z M99.8,271.1c-0.1-2.8-0.1-5.4-1.4-7.9C97,264.3,97.8,268.6,99.8,271.1z"/>
	<path class="st0" d="M184.7,324.2c-1.3,0.3-4.4,1.8-5.4,0.2c-0.9-1.3,0.2-3.7,1.1-4.7c1.4-1.6,3.1-1.5,4.9-2.3
		c0.6-0.3,1-0.5,1.1-1.2c0-0.4-0.2-0.7-0.2-1.1c0-0.5,0.2-0.9,0.2-1.4c2,1.7,3.1,4.1,3.7,6.6c0.5,2.1,1,4.7-0.1,6.7
		c-0.6,1.2-2.5,3.8-4.2,3.2C183.7,329.7,184.5,325.8,184.7,324.2z M185.5,319.2c-1.6-0.1-4.9,1.1-4.2,3.2
		C182,324.8,184.9,319.9,185.5,319.2z M187.9,321.3c-0.2,0-0.4-0.1-0.6-0.1c-0.2,2-0.5,4.1-0.7,6.1
		C188.4,325.7,188.2,323.5,187.9,321.3z"/>
	<path class="st0" d="M224.8,286.1c-2.5-0.7-3.1-2.9-4.5-4.8c-1.5-2.1-3.9-3.8-6.5-3.2c1,2.6,3.3,3.4,5.6,4.5c1,0.5,2.4,1,1.2,2.1
		c-1.1,1-2.7,1-4,1c-1.5,0-3.1-0.1-4.6-0.1c-1.1-0.1-2.8,0.2-3.8-0.5c-1.5-1-1.5-4.1-0.2-5.2c0.8-0.6,2.1-0.1,3,0
		c1.4,0.2,1.2-0.1,0.9-1.3c-0.4-2.5,2-2.9,4-2.4C221,277.2,222.8,282.1,224.8,286.1z M215.9,283.5c-2.7-1.5-4.8-1.8-6.7-0.9
		C209.9,283.8,213.6,284.3,215.9,283.5z"/>
	<path class="st0" d="M31.4,124.1c-0.1-2.3-0.9-6.1,0.7-8.1c1.4-1.6,3.7,1.1,4.4,2.2c1.1,1.7,1.3,3.6,1.1,5.6
		c-0.1,1.4-0.5,2.7-0.6,4.1c-0.1,0.5-0.2,1.1-0.1,1.7c0.1,0.5,0.5,0.9,0.6,1.5c0.1,1.3-0.9,1.1-1.8,0.8c-1.2-0.3-2.3-0.5-3.5-0.7
		c-1.9-0.4-3.7-1.5-5-2.9c-1.1-1.2-2.2-3-1.6-4.7C26.4,121.5,30.1,123.6,31.4,124.1z M34.2,117.6c-1.8,1.9-0.9,8.2,1.4,9.6
		C36.1,123.8,37.2,120.5,34.2,117.6z M27.7,124.4c-0.4,2.5,3,5.1,6.1,4.7C33.3,126.7,30.3,124.4,27.7,124.4z"/>
	<path class="st0" d="M290.6,172.7c-1.4-0.2-3.6-0.2-3.5-2.2c0.1-1.5,1-3.1,2.1-4.1c1.2-1.1,2.9-1.8,4.3-2.6
		c1.2-0.7,2.9-1.4,3.3,0.5c0.4,1.8,0.2,4.1,0.1,5.9c-0.1,1.9-0.4,4.1-1.6,5.7c-0.8,1-2.3,2.5-3.7,1.6
		C290.1,176.6,290.5,174.1,290.6,172.7z M294.9,167.8c-1.3,2.4-2.4,4.8-1.7,7.7C295.4,173.1,295.1,170.5,294.9,167.8z M293,166.3
		c-1.5,1-3.6,2.2-3.1,4.3C291.5,169.8,292.1,167.8,293,166.3z"/>
	<path class="st0" d="M195.1,308.1c-1.5-1-0.9-2.2,0.5-3.2c1.1-0.7,3.5-1.9,4.8-1.7c1.4,0.2,1.1,2.3,0.3,3.1
		C199.5,307.5,196.7,307.7,195.1,308.1z"/>
	<path class="st0" d="M317.8,151.7c1.5-3.3,5.3-2.1,7.1,0.4c1,1.3,0.4,2.5-1.2,2C321.6,153.5,319.7,152.5,317.8,151.7z"/>
	<path class="st0" d="M32.5,216.4c-1.4-1-3.6-1.9-4.7-3.3c-1.1-1.3,0.1-2.1,1.5-2C31.7,211.4,35,214.2,32.5,216.4z"/>
	<path class="st0" d="M209.4,323.6c-0.2,1.4-1.6,3.9-3,4.2c-1.6,0.4-1.5-1.7-1.2-2.6c0.4-1.2,1.2-2.7,2.3-3.5
		C208.9,320.6,209.4,322.3,209.4,323.6z"/>
	<path class="st0" d="M309.9,161.2c-0.9,1.3-1.6,2.3-3.2,0.9c-0.9-0.8-1.3-2.4-1.3-3.6c0-1.1,0.8-2.2,2-1.5
		C308.6,157.6,309.3,160,309.9,161.2z"/>
	<path class="st0" d="M50.4,203.7c0,1-0.3,3-1.7,1.8c-0.8-0.8-2.1-3.5-2.2-4.7c-0.1-1.4,1.3-1.8,2.4-1.1
		C50.1,200.5,50.4,202.3,50.4,203.7z"/>
	<path class="st0" d="M302.3,158.9c1.3,0.7,1.8,2,2.1,3.4c0.2,1.1,0.7,3.1-1.1,2.8c-1.4-0.2-2.5-1.9-2.5-3.2
		C300.6,160.6,301.2,159.7,302.3,158.9z"/>
	<path class="st0" d="M206.1,49.6c2.1,0.4,4.2,0.8,6.2,1.5c1.4,0.5,1.7,0.8,1.1,2.1c-0.5,1.1-0.7,1.1-1.8,0.7
		c-0.8-0.3-1.5-0.7-2.2-1.1c-0.7-0.5-1.4-1-2-1.5C206.5,50.7,205.7,50.6,206.1,49.6z"/>
	<path class="st0" d="M64.9,124.2c0.1-1.8,4-5.1,4.6-2c0.2,1.1-0.8,3.1-1.7,3.6C66.2,126.8,65.6,125.3,64.9,124.2z"/>
	<path class="st0" d="M46.9,208.8c-1.6-0.7-4.6-3.9-3.1-5.8c0.9-1.1,2.3-0.3,2.9,0.6C47.6,205,46.9,207.3,46.9,208.8z"/>
	<path class="st0" d="M35.3,211.5c-1.6,0-6-2.8-3.6-4.6c1.1-0.8,2.6,0.2,3.2,1.1C35.9,209.3,36,210.2,35.3,211.5z"/>
	<path class="st0" d="M65.7,50.2c-1.6,0.4-2.2,0.8-3.3-0.8c-0.6-0.8-1.6-2.8-1.3-3.8c0.4-1.2,1.7-1,2.4-0.2
		C64.4,46.7,65,48.7,65.7,50.2z"/>
	<path class="st0" d="M213.5,29.3c0.2,2.3-2.3,5.5-4.8,4C206,31.6,212.2,29.3,213.5,29.3z"/>
	<path class="st0" d="M85,52.6c1.2-1.3,2.3-3,3.7-4.1c1-0.8,2.1-0.3,2.1,1.1c0.1,1.2-0.6,1.9-1.7,2.3c-0.8,0.3-1.6,0.5-2.4,0.8
		C85.8,53.1,85.6,53.5,85,52.6z"/>
	<path class="st0" d="M262.7,241.8c1.2-1.6,5.4-1.8,5.4,0.9c0,1.4-1.7,1.7-2.8,1.4C264,243.9,263.1,243,262.7,241.8z"/>
	<path class="st0" d="M69.5,45.6c-0.3,1.2-0.5,3.1-1.2,4.2c-0.9,1.4-1.7,0.2-1.9-0.9c-0.3-1.2-0.3-2.8,0.5-3.8
		c0.2-0.2,1-1.1,1.3-1.1C68.4,44.1,69.3,45.4,69.5,45.6z"/>
	<path class="st0" d="M279.9,269.9c1.1,0.8,2.6,1.5,3.3,2.7c0.5,1,0.1,2.2-1.1,2.5c-1.1,0.2-2-0.8-2.5-1.7c-0.3-0.5-0.7-1.4-0.7-2
		C279,270.9,279.6,270.4,279.9,269.9z"/>
	<path class="st0" d="M267.2,237.5c-1.1-0.7-2.7-1.1-3.3-2.4c-0.5-1.2,0.5-1.5,1.5-1.5c1.1,0,2.6,0.1,3.3,1.2
		C269.8,236.2,268.2,236.7,267.2,237.5z"/>
	<path class="st0" d="M205.6,319.1c-0.1,1.4-2.3,5-4,3.9c-1.4-0.9-0.1-2.8,0.9-3.6C203.1,318.9,205.7,317.2,205.6,319.1z"/>
	<path class="st0" d="M136.9,64.4c-0.1-1.8,1.5-1.1,2.5-0.6c0.7,0.4,2.8,1.2,2.4,2.4c-0.4,1.1-2.2,1.7-3.1,1.1
		C138,66.7,137,65.4,136.9,64.4z"/>
	<path class="st0" d="M212,25.7c-1,0.9-2.3,2.7-3.6,3.3c-0.9,0.4-1.8-0.1-1.8-1.2c0.1-1,1.6-2.2,2.3-2.8
		C210.3,24,211.2,24.4,212,25.7z"/>
	<path class="st0" d="M84.1,49.7c0,1.1-0.1,2.1-1.4,2.4c-1.3,0.3-2.4-0.4-2.1-1.8c0.2-0.9,0.6-2.7,1.6-3
		C83.6,47,84.2,48.6,84.1,49.7z"/>
	<path class="st0" d="M319.8,156.6c-0.3,3.5-4.4-0.4-4.7-2c-0.2-1.3,1.3-1.4,2.1-0.9C318.2,154.4,319.5,155.5,319.8,156.6z"/>
	<path class="st0" d="M94,295.3c-1.2,0-2.4-0.2-3.2-1.1c-0.9-1-0.7-2.3,0.7-2.5c0.8-0.1,2.8,0.7,3.3,1.3
		C95.4,293.9,94.6,294.8,94,295.3z"/>
	<path class="st0" d="M249.7,88.8c-0.2,0.7,0.6,1.7,0.2,2.3c-0.6,0.9-2.5,0.3-3-0.4c-0.6-0.8-0.8-2.8,0.1-3.5
		C248.1,86.4,250,87.4,249.7,88.8z"/>
	<path class="st0" d="M37.7,104.7c1,0.9,2.7,1.9,3.3,3.1c0.6,1.1-0.5,1.9-1.6,1.9C37,109.4,36.6,106.2,37.7,104.7z"/>
	<path class="st0" d="M189,284.2c1.1-0.8,2.4-1.4,3.7-1c0.9,0.3,1.9,1.2,1.4,2.2c-0.5,0.9-1.9,1.3-2.8,1
		C190.2,286.1,189.5,285,189,284.2z"/>
	<path class="st0" d="M210,44.8c1.3,0.3,4.3,1,2.1,2.7c-1.8,1.4-3.3-0.3-4.5-1.5C207.8,45.9,210.1,44.8,210,44.8z"/>
	<path class="st0" d="M325.1,195.4c-1.2,0-2.4-0.8-3-1.7c-0.6-1-0.6-2.5,1-2.6c1,0,2,1,2.4,1.8C326.1,194,325.9,194.5,325.1,195.4z"
		/>
	<path class="st0" d="M238.5,84.5c0.8-1.1,1-2,2.3-1.1c0.9,0.6,1.3,1.5,1.4,2.5c0,0.3,0,0.5,0,0.8c0.2,0.5,0,0.7-0.5,0.5
		c-0.3,0.1-1,0.1-1.3-0.1C239.4,86.8,239,85.3,238.5,84.5z"/>
	<path class="st0" d="M197.9,299.7c-1.1,0.9-5.6,3.6-5,0.3c0.2-0.9,0.9-2.2,2-2.2C195.9,297.9,197.2,299.2,197.9,299.7z"/>
	<path class="st0" d="M191.4,292.8c-0.8-0.5-2.2-0.9-2.6-1.9c-0.5-1.3,0.4-1.8,1.5-1.8c1,0,2.2,0.2,2.7,1.2
		C193.6,291.6,192.2,292.1,191.4,292.8z"/>
	<path class="st0" d="M147.2,67.2c-1.1,0-2.3-0.6-2.7-1.6c-0.3-0.9-0.1-2.1,1-2.2c0.9-0.1,1.8,0.8,2.3,1.4
		C148.7,65.9,148,66.3,147.2,67.2z"/>
	<path class="st0" d="M53,254.6c-0.2,0.3-0.7,1.4-1,1.5s-1.3-0.6-1.5-0.7c-0.7-0.4-2.2-1-2.1-2.1c0.1-0.9,1.7-0.9,2.4-0.6
		C51.9,253,52.7,253.6,53,254.6z"/>
	<path class="st0" d="M39.9,100.3c0.8,0.7,2.5,1.6,3,2.7c0.2,0.4,0.2,1.1,0,1.4c0.1,0.4-0.1,0.6-0.5,0.4c-0.2,0-0.5,0-0.7,0
		C39.4,104.1,39.1,102.1,39.9,100.3z"/>
	<path class="st0" d="M90.2,301.2c-0.6-0.5-2.5-1.6-2.6-2.5c-0.1-1.1,1.4-1.2,2.1-1.1s2,0.7,2.2,1.6
		C92.2,300.1,90.9,300.6,90.2,301.2z"/>
	<path class="st0" d="M71.4,114c0.7,0.9,1.2,1.2,1,2.4c-0.1,1-0.4,2.1-1.5,2.3C68.2,119.2,69.9,114.4,71.4,114z"/>
	<path class="st0" d="M276.2,72.1c-0.7-1-0.9-1.4-0.1-2.4c0.5-0.5,1.2-1.3,2-1.2c1.1,0.1,1.4,1.2,1,2
		C278.7,71.6,277.3,72.1,276.2,72.1z"/>
	<path class="st0" d="M49.1,247.9c-0.7-0.3-5.6-1.8-3.6-3.1c0.6-0.4,3,0.3,3.5,0.8C49.7,246.3,49.7,247.2,49.1,247.9z"/>
	<path class="st0" d="M276.5,279.8c1.3,0,3.9,2.4,2.1,3.4c-0.9,0.5-2.1-0.3-2.5-1C275.5,281.1,276,280.6,276.5,279.8z"/>
</g>
</svg>
